<svg width="28" height="28" viewBox="0 0 28 28" fill="none" xmlns="http://www.w3.org/2000/svg">
  <g filter="url(#filter0_d_1_2)">
    <path d="M14 24c1.66 0 3-1.34 3-3h-6c0 1.66 1.34 3 3 3z" fill="#6366f1"/>
    <path d="M21 17v-5c0-3.07-1.63-5.64-5-6.32V5c0-.83-.67-1.5-1.5-1.5S13 4.17 13 5v.68C9.63 6.36 8 8.92 8 12v5l-1.29 1.29A1 1 0 0 0 7 20h14c.55 0 1-.45 1-1 0-.26-.11-.52-.29-.71L21 17z" fill="#fff"/>
    <circle cx="21" cy="9" r="3" fill="#f43f5e" stroke="#fff" stroke-width="2"/>
  </g>
  <defs>
    <filter id="filter0_d_1_2" x="0" y="0" width="28" height="28" filterUnits="userSpaceOnUse" color-interpolation-filters="sRGB">
      <feFlood flood-opacity="0" result="BackgroundImageFix"/>
      <feColorMatrix in="SourceAlpha" type="matrix" values="0 0 0 0 0 0 0 0 0 0 0 0 0 0 0 0 0 0 127 0"/>
      <feOffset/>
      <feGaussianBlur stdDeviation="2"/>
      <feComposite in2="hardAlpha" operator="out"/>
      <feColorMatrix type="matrix" values="0 0 0 0 0.388235 0 0 0 0 0.4 0 0 0 0 0.945098 0 0 0 0.2 0"/>
      <feBlend mode="normal" in2="BackgroundImageFix" result="effect1_dropShadow_1_2"/>
      <feBlend mode="normal" in="SourceGraphic" in2="effect1_dropShadow_1_2" result="shape"/>
    </filter>
  </defs>
</svg>
